<svg version="1.1" id="Ebene_1" xmlns="http://www.w3.org/2000/svg" xmlns:xlink="http://www.w3.org/1999/xlink" x="0px" y="0px"
 viewBox="0 0 154.4 154.4" style="enable-background:new 0 0 154.4 154.4;" width="154.4" height="154.5" xml:space="preserve">
    <path fill="#3E88C1" d="M78.4,13.9c-35.2,0-63.7,28.5-63.7,63.7s28.5,63.7,63.7,63.7s63.7-28.5,63.7-63.7
        S113.6,13.9,78.4,13.9z M44.2,113.8c-0.5,0-1-0.1-1.4-0.3c-1.7-0.7-2.8-2.4-2.8-4.7V77.2c0-4.2,3.4-7.6,7.6-7.6H70
        c1.4,0,2.6,1.2,2.6,2.6s-1.2,2.6-2.6,2.6H47.6c-1.3,0-2.4,1.1-2.4,2.4v30l48.1-48.1h-9.4c-1.4,0-2.6-1.2-2.6-2.6s1.2-2.6,2.6-2.6
        h14.5c2,0,3.7,1.6,3.7,3.7v13.8c0,1.4-1.2,2.6-2.6,2.6s-2.6-1.2-2.6-2.6v-8.7l-49.8,49.8C46.3,113.3,45.3,113.8,44.2,113.8z
         M115.2,91.9c0,4.9-4,8.8-8.8,8.8h-20v7.7c0,4.2-3.4,7.6-7.6,7.6H58.6c-1.4,0-2.6-1.2-2.6-2.6s1.2-2.6,2.6-2.6h20.2
        c1.3,0,2.4-1.1,2.4-2.4V86c0-1.4,1.2-2.6,2.6-2.6s2.6,1.2,2.6,2.6v9.6h20c2,0,3.7-1.7,3.7-3.7V49.6c0-2-1.7-3.7-3.7-3.7H64.1
        c-2,0-3.7,1.7-3.7,3.7v13.7c0,1.4-1.2,2.6-2.6,2.6s-2.6-1.2-2.6-2.6V49.6c0-4.9,4-8.8,8.8-8.8h42.3c4.9,0,8.8,4,8.8,8.8L115.2,91.9
        L115.2,91.9z"/>
</svg>